<svg width="40" height="40" viewBox="0 0 40 40" fill="none" xmlns="http://www.w3.org/2000/svg">
<path fill-rule="evenodd" clip-rule="evenodd" d="M0.860667 11.9053C2.21382 5.35906 6.37717 1.713 12.8714 0.611485C17.6721 -0.202535 22.4745 -0.212814 27.2671 0.63439C33.9538 1.81636 37.9735 5.67503 39.2541 12.3202C40.2435 17.456 40.259 22.6464 39.2386 27.7772C37.8696 34.2782 33.5989 38.291 27.1286 39.3885C22.3279 40.2025 17.5255 40.2127 12.733 39.3655C6.0462 38.1836 2.00868 34.1323 0.728102 27.4871C-0.311637 22.3175 -0.211555 17.0942 0.860667 11.9053Z" fill="#7F33EB"/>
<path fill-rule="evenodd" clip-rule="evenodd" d="M11.2218 10.7089C12.127 9.04447 13.8991 8.01843 15.8126 8.01843H24.1894C26.1029 8.01843 27.875 9.04447 28.7802 10.7089L32.5474 17.636C33.1545 18.7523 33.1528 19.9392 33.1511 21.061L33.151 21.2332C33.151 21.7303 32.748 22.1332 32.251 22.1332C31.7539 22.1332 31.351 21.7303 31.351 21.2332C31.351 19.9423 31.3443 19.1913 30.9661 18.4959L27.1989 11.5688C26.6188 10.5022 25.4646 9.81843 24.1894 9.81843H15.8126C14.5374 9.81843 13.3832 10.5022 12.8031 11.5688L9.03591 18.4959C8.52272 19.4396 8.52272 20.564 9.0359 21.5076L12.8031 28.4347C13.3832 29.5013 14.5374 30.1851 15.8126 30.1851H19.3563C19.8533 30.1851 20.2563 30.588 20.2563 31.0851C20.2563 31.5822 19.8533 31.9851 19.3563 31.9851H15.8126C13.8991 31.9851 12.127 30.9591 11.2218 29.2947L7.45462 22.3676C6.64981 20.8877 6.64981 19.1158 7.45462 17.636L11.2218 10.7089ZM24.6138 25.7812C24.9652 25.4297 25.5351 25.4297 25.8866 25.7812L28.1668 28.0615L30.4471 25.7812C30.7986 25.4297 31.3684 25.4297 31.7199 25.7812C32.0714 26.1327 32.0714 26.7025 31.7199 27.054L29.4396 29.3342L31.7199 31.6145C32.0714 31.966 32.0714 32.5358 31.7199 32.8873C31.3684 33.2388 30.7986 33.2388 30.4471 32.8873L28.1668 30.607L25.8866 32.8873C25.5351 33.2388 24.9652 33.2388 24.6138 32.8873C24.2623 32.5358 24.2623 31.966 24.6138 31.6145L26.894 29.3342L24.6138 27.054C24.2623 26.7025 24.2623 26.1327 24.6138 25.7812ZM12.7168 23.4306C12.7683 23.4773 12.8234 23.5006 12.8822 23.5006H14.2381C14.363 23.5006 14.4512 23.4734 14.5027 23.419C14.5541 23.3567 14.5872 23.3023 14.6019 23.2556L15.0208 22.0656H17.9641L18.394 23.2556C18.4087 23.3023 18.4418 23.3567 18.4932 23.419C18.552 23.4734 18.6366 23.5006 18.7468 23.5006H20.1027C20.1689 23.5006 20.224 23.4773 20.2681 23.4306C20.3195 23.3762 20.3452 23.3178 20.3452 23.2556C20.3452 23.2167 20.3379 23.1817 20.3232 23.1506L17.7436 15.6606C17.7216 15.5751 17.6738 15.5012 17.6003 15.439C17.5342 15.369 17.4386 15.334 17.3137 15.334H15.6822C15.5573 15.334 15.458 15.369 15.3846 15.439C15.3184 15.5012 15.2743 15.5751 15.2523 15.6606L12.6617 23.1506C12.6543 23.1817 12.6507 23.2167 12.6507 23.2556C12.6507 23.3178 12.6727 23.3762 12.7168 23.4306ZM17.5232 20.3856H15.4727L16.4869 17.3056L17.5232 20.3856ZM21.2913 23.419C21.3427 23.4734 21.4089 23.5006 21.4897 23.5006H24.411C25.1312 23.5006 25.7375 23.3878 26.2299 23.1623C26.7297 22.929 27.1081 22.5751 27.3654 22.1006C27.6299 21.6262 27.7769 21.0273 27.8063 20.304C27.8137 19.9695 27.8173 19.674 27.8173 19.4173C27.8173 19.1606 27.8137 18.8612 27.8063 18.519C27.7843 17.8267 27.6373 17.2473 27.3654 16.7806C27.0934 16.3062 26.7039 15.9484 26.1968 15.7073C25.6898 15.4584 25.0761 15.334 24.3559 15.334H21.4897C21.4089 15.334 21.3427 15.3612 21.2913 15.4156C21.2398 15.4701 21.2141 15.5401 21.2141 15.6256V23.209C21.2141 23.2945 21.2398 23.3645 21.2913 23.419ZM24.3559 21.8206H23.1874V17.014H24.3008C24.7858 17.014 25.1496 17.1384 25.3921 17.3873C25.642 17.6284 25.7743 18.0134 25.789 18.5423C25.8037 18.7601 25.811 18.9584 25.811 19.1373C25.8184 19.3162 25.8184 19.4951 25.811 19.674C25.811 19.8528 25.8037 20.0551 25.789 20.2806C25.7816 20.6462 25.7228 20.9417 25.6126 21.1673C25.5097 21.3928 25.3517 21.5601 25.1386 21.669C24.9328 21.7701 24.6719 21.8206 24.3559 21.8206Z" fill="white"/>
</svg>
