<svg width="40" height="40" viewBox="0 0 40 40" fill="none" xmlns="http://www.w3.org/2000/svg">
<path fill-rule="evenodd" clip-rule="evenodd" d="M0.860667 11.9053C2.21382 5.35906 6.37717 1.713 12.8714 0.611485C17.6721 -0.202535 22.4745 -0.212814 27.2671 0.63439C33.9538 1.81636 37.9735 5.67503 39.2541 12.3202C40.2435 17.456 40.259 22.6464 39.2386 27.7772C37.8696 34.2782 33.5989 38.291 27.1286 39.3885C22.3279 40.2025 17.5255 40.2127 12.733 39.3655C6.0462 38.1836 2.00868 34.1323 0.728102 27.4871C-0.311637 22.3175 -0.211555 17.0942 0.860667 11.9053Z" fill="#7F33EB"/>
<path fill-rule="evenodd" clip-rule="evenodd" d="M25.3312 14.2826C25.3251 14.2766 25.3259 14.278 25.3316 14.2878C25.3495 14.3192 25.417 14.4367 25.4733 14.6785C25.5396 14.9637 25.5711 15.3464 25.5125 15.7863C25.3976 16.6479 24.9339 17.752 23.655 18.7752C23.3246 19.0395 23.2228 19.4984 23.4104 19.8778C23.598 20.2572 24.0244 20.4546 24.4347 20.352L28.6076 19.3088L30.6384 21.3396C30.3924 21.6567 30.0073 22.0997 29.4404 22.6225C28.2808 23.6918 26.3519 25.1029 23.2805 26.4507C23.248 26.4103 23.2142 26.3704 23.1794 26.3312L15.0752 17.2207C17.8621 15.3051 19.3558 13.1788 20.1495 11.4402C20.4176 10.853 20.6043 10.3136 20.7343 9.84593C20.9887 10.0865 21.2724 10.3554 21.5752 10.6434C22.7475 11.7582 24.1994 13.1525 25.3312 14.2826ZM13.5079 16.0984C16.3841 14.2754 17.8046 12.2434 18.513 10.6918C18.8799 9.88821 19.0601 9.20382 19.1485 8.73054C19.1928 8.49392 19.214 8.31045 19.2241 8.19181C19.2292 8.13251 19.2315 8.08951 19.2325 8.06427C19.2331 8.05165 19.2333 8.04349 19.2333 8.03996L19.2334 8.04149L19.2333 8.04243C19.2337 7.68416 19.4463 7.36014 19.7747 7.21744C20.1035 7.0746 20.4856 7.14069 20.7474 7.38566L20.133 8.04335L20.7474 7.38571L20.7476 7.38584L20.7481 7.38632L20.7501 7.38818L20.7579 7.39548L20.7883 7.424L20.9055 7.5339C21.0075 7.62961 21.1556 7.76876 21.3404 7.94283C21.71 8.29093 22.2266 8.77878 22.8146 9.33795C23.9891 10.455 25.454 11.8616 26.602 13.0079C26.9189 13.3243 27.1173 13.8044 27.2256 14.2702C27.3416 14.7687 27.3831 15.3705 27.2959 16.0244C27.2148 16.6331 27.0227 17.2829 26.6803 17.9345L28.6653 17.4383C28.9717 17.3617 29.2958 17.4515 29.5192 17.6749L32.4359 20.5915C32.7132 20.8689 32.7792 21.294 32.5989 21.6424L31.8 21.2285C32.5989 21.6424 32.5987 21.6429 32.5984 21.6434L32.5978 21.6446L32.5965 21.647L32.5935 21.6529L32.5852 21.6682C32.5788 21.6801 32.5704 21.6951 32.5601 21.7132C32.5395 21.7495 32.5108 21.798 32.4733 21.8578C32.3984 21.9775 32.288 22.1425 32.1354 22.3449C31.83 22.7501 31.3562 23.3044 30.6596 23.9468C29.3394 25.1643 27.2273 26.6903 23.9594 28.119C24.0509 29.0813 23.6988 30.0728 22.922 30.7649C21.6271 31.9186 19.6426 31.8035 18.4899 30.5076L16.474 28.2413L13.7909 30.632C12.4654 31.8131 10.4339 31.6952 9.25394 30.3687C8.07435 29.0426 8.19229 27.0107 9.51739 25.83L12.2016 23.4384L10.1853 21.1716C9.03293 19.8762 9.14815 17.8914 10.4426 16.738C11.3078 15.9671 12.4808 15.7627 13.5079 16.0984ZM19.2333 8.03996L19.2334 8.03993L19.2334 8.03817C19.2334 8.03759 19.2334 8.03819 19.2333 8.03996ZM11.6401 18.0819C12.1923 17.5898 13.0382 17.6389 13.5298 18.1916L21.8345 27.5276C22.3264 28.0806 22.2772 28.9285 21.7246 29.421C21.1723 29.913 20.3264 29.8639 19.8348 29.3113L17.2202 26.372L16.6216 25.699L15.9491 26.2982L12.5934 29.2881C12.0106 29.8075 11.1177 29.7556 10.5989 29.1723C10.0796 28.5886 10.1315 27.6937 10.7148 27.174L14.0705 24.184L14.7419 23.5858L14.1442 22.9139L11.5302 19.9753C11.0382 19.4222 11.0874 18.5743 11.6401 18.0819Z" fill="white"/>
</svg>
