<svg width="40" height="40" viewBox="0 0 40 40" fill="none" xmlns="http://www.w3.org/2000/svg">
<path fill-rule="evenodd" clip-rule="evenodd" d="M0.860667 11.9053C2.21382 5.35906 6.37717 1.713 12.8714 0.611485C17.6721 -0.202535 22.4745 -0.212814 27.2671 0.63439C33.9538 1.81636 37.9735 5.67503 39.2541 12.3202C40.2435 17.456 40.259 22.6464 39.2386 27.7772C37.8696 34.2782 33.5989 38.291 27.1286 39.3885C22.3279 40.2025 17.5255 40.2127 12.733 39.3655C6.0462 38.1836 2.00868 34.1323 0.728102 27.4871C-0.311637 22.3175 -0.211555 17.0942 0.860667 11.9053Z" fill="#7F33EB"/>
<path fill-rule="evenodd" clip-rule="evenodd" d="M9.81666 20C9.81666 14.3759 14.3759 9.81663 20 9.81663C25.6241 9.81663 30.1833 14.3759 30.1833 20C30.1833 25.6241 25.6241 30.1833 20 30.1833C14.3759 30.1833 9.81666 25.6241 9.81666 20ZM20 8.01663C13.3818 8.01663 8.01666 13.3818 8.01666 20C8.01666 26.6182 13.3818 31.9833 20 31.9833C26.6182 31.9833 31.9833 26.6182 31.9833 20C31.9833 13.3818 26.6182 8.01663 20 8.01663ZM20 13.2666C20.4971 13.2666 20.9 13.6696 20.9 14.1666V23.8499L24.074 21.0726C24.4481 20.7453 25.0167 20.7832 25.344 21.1573C25.6713 21.5314 25.6334 22.1 25.2593 22.4273L20.596 26.5077C20.4373 26.6481 20.2286 26.7333 20 26.7333C19.7715 26.7333 19.5629 26.6481 19.4041 26.5078L14.7407 22.4273C14.3666 22.1 14.3287 21.5314 14.656 21.1573C14.9833 20.7832 15.5519 20.7453 15.926 21.0726L19.1 23.8499V14.1666C19.1 13.6696 19.5029 13.2666 20 13.2666Z" fill="white"/>
</svg>
