<svg width="240" height="40" viewBox="0 0 240 40" fill="none" xmlns="http://www.w3.org/2000/svg">
<path d="M2.27606 31V27.9219L13.6198 12.625V12.3438H2.54168V8.45313H19.3698V11.5156L8.0573 26.8281V27.1094H19.6823V31H2.27606ZM26.081 11.1563C24.6748 11.1563 23.5029 10.0313 23.5029 8.62501C23.5029 7.20313 24.6748 6.07813 26.081 6.07813C27.4873 6.07813 28.6435 7.20313 28.6435 8.62501C28.6435 10.0313 27.4873 11.1563 26.081 11.1563ZM23.7842 31V13.7969H28.3467V31H23.7842ZM32.6204 31V13.7969H37.1829V16.4531H37.4642C38.2454 14.5938 39.9485 13.4219 42.4016 13.4219C46.2298 13.4219 48.2923 15.7656 48.2923 19.875V31H43.7298V20.9062C43.7298 18.4844 42.7298 17.2031 40.5735 17.2031C38.4641 17.2031 37.1829 18.7187 37.1829 21.0469V31H32.6204ZM59.9879 37.0469C55.2223 37.0469 52.4566 35.0469 52.0816 32.125V32.0469H56.5973L56.6129 32.1094C56.8629 33.1094 58.0504 33.7969 60.0816 33.7969C62.5191 33.7969 63.941 32.6562 63.941 30.6562V27.4531H63.6598C62.7066 29.2656 60.8941 30.25 58.5035 30.25C54.1754 30.25 51.5035 26.9062 51.5035 22.0156V21.9844C51.5035 16.9219 54.1754 13.5156 58.5816 13.5156C60.941 13.5156 62.7848 14.6719 63.7066 16.6094H63.9254V13.7969H68.4879V30.4687C68.4879 34.5 65.191 37.0469 59.9879 37.0469ZM60.0504 26.75C62.5191 26.75 63.9879 24.8281 63.9879 22V21.9687C63.9879 19.1406 62.5035 17.2187 60.0504 17.2187C57.5973 17.2187 56.1754 19.1406 56.1754 21.9687V22C56.1754 24.8281 57.5816 26.75 60.0504 26.75ZM81.1135 31V8.45313H86.5197L92.7541 24.9531H93.0353L99.2541 8.45313H104.66V31H100.457V15.6562H100.145L94.3635 31H91.4103L85.6291 15.6562H85.3166V31H81.1135ZM109.825 31V8.45313H119.122C123.872 8.45313 127.043 11.5156 127.043 16.1562V16.1875C127.043 20.8281 123.872 23.8906 119.122 23.8906H114.543V31H109.825ZM117.965 12.1875H114.543V20.2031H117.965C120.668 20.2031 122.262 18.7656 122.262 16.2031V16.1719C122.262 13.6094 120.668 12.1875 117.965 12.1875ZM139.036 31.5C133.942 31.5 130.583 28.7656 130.27 24.7344L130.255 24.5312H134.77L134.786 24.7031C134.989 26.4531 136.598 27.7031 139.036 27.7031C141.442 27.7031 143.02 26.3594 143.02 24.4531V24.4219C143.02 22.2656 141.411 21.0781 138.677 21.0781H136.098V17.7187H138.614C140.989 17.7187 142.52 16.4687 142.52 14.6406V14.6094C142.52 12.7344 141.223 11.5781 139.005 11.5781C136.786 11.5781 135.302 12.7813 135.114 14.6563L135.098 14.7969H130.755L130.77 14.6094C131.098 10.5781 134.27 7.95313 139.005 7.95313C143.848 7.95313 146.973 10.3906 146.973 13.9844V14.0156C146.973 16.8281 144.911 18.6562 142.27 19.2031V19.2969C145.63 19.6094 147.817 21.5469 147.817 24.6094V24.6406C147.817 28.7344 144.302 31.5 139.036 31.5Z" fill="#9457FF"/>
<rect x="155.5" y="5.33333" width="84.3333" height="29.3333" rx="7.33333" fill="#9457FF"/>
<path d="M177.729 13.3923C176.875 13.041 175.864 12.8654 174.719 12.8654H169.059C168.857 12.8654 168.677 12.9313 168.542 13.063C168.408 13.1947 168.34 13.3704 168.34 13.568V26.4123C168.34 26.6099 168.408 26.7855 168.542 26.9173C168.677 27.049 168.857 27.1149 169.059 27.1149H171.799C172.001 27.1149 172.181 27.049 172.316 26.9173C172.473 26.7855 172.563 26.6099 172.563 26.3903V22.2845H174.741C175.887 22.2845 176.898 22.1308 177.729 21.8015C178.605 21.4722 179.301 20.9452 179.773 20.2646C180.267 19.562 180.514 18.6837 180.514 17.6299C180.514 16.576 180.267 15.6538 179.773 14.9512C179.301 14.2486 178.605 13.7217 177.729 13.3704V13.3923ZM176.314 17.6079C176.314 18.1348 176.179 18.5081 175.864 18.7716C175.572 19.035 175.168 19.1448 174.629 19.1448H172.495V16.049H174.629C175.235 16.049 175.662 16.2027 175.909 16.4881C176.179 16.7955 176.291 17.1688 176.291 17.6079H176.314Z" fill="white"/>
<path d="M194.261 23.7117H188.376V13.568C188.376 13.3704 188.286 13.1728 188.151 13.063C188.017 12.9313 187.837 12.8654 187.657 12.8654H184.984C184.782 12.8654 184.603 12.9313 184.468 13.063C184.333 13.1947 184.266 13.3704 184.266 13.568V26.4123C184.266 26.6099 184.333 26.7855 184.468 26.9173C184.603 27.049 184.782 27.1149 184.984 27.1149H194.261C194.463 27.1149 194.642 27.049 194.777 26.9173C194.934 26.7855 195.024 26.6099 195.024 26.3903V24.4143C195.024 24.2167 194.934 24.0191 194.8 23.9093C194.665 23.7556 194.485 23.6897 194.261 23.6897V23.7117Z" fill="white"/>
<path d="M207.358 12.667C207.178 12.667 206.998 12.7348 206.841 12.8704C206.706 13.006 206.639 13.1868 206.639 13.3902V21.5484C206.639 22.3619 206.437 22.9721 206.055 23.3563C205.673 23.7405 205.157 23.9212 204.46 23.9212C203.764 23.9212 203.202 23.7405 202.821 23.3563C202.439 22.9495 202.259 22.3393 202.259 21.5484V13.3902C202.259 13.1868 202.192 13.006 202.057 12.8704C201.922 12.7348 201.743 12.667 201.54 12.667H198.935C198.733 12.667 198.553 12.7348 198.418 12.8704C198.284 13.006 198.216 13.1868 198.216 13.3902V21.571C198.216 22.8817 198.486 23.9664 199.002 24.8252C199.519 25.684 200.26 26.3167 201.204 26.7461C202.147 27.1529 203.247 27.3337 204.483 27.3337C205.718 27.3337 206.841 27.1303 207.762 26.7461C208.705 26.3393 209.446 25.684 209.963 24.8252C210.48 23.9664 210.749 22.8591 210.749 21.571V13.3902C210.749 13.1868 210.659 13.006 210.525 12.8704C210.39 12.7348 210.21 12.667 210.03 12.667H207.358Z" fill="white"/>
<path d="M226.446 20.6815C226.064 20.1106 225.48 19.6495 224.694 19.2982C223.931 18.9469 222.92 18.6615 221.685 18.4419C220.966 18.2882 220.382 18.1346 219.955 18.0028C219.573 17.8711 219.304 17.7174 219.146 17.5417C219.012 17.388 218.944 17.2124 218.944 16.9928C218.944 16.6415 219.057 16.4 219.326 16.2463C219.618 16.0707 220.045 15.9609 220.606 15.9609C221.123 15.9609 221.527 16.0707 221.819 16.2683C222.111 16.4439 222.291 16.6635 222.358 16.8831V16.9489C222.493 17.1026 222.605 17.2124 222.763 17.2783C222.897 17.3441 223.055 17.3661 223.234 17.3661H225.907C226.087 17.3661 226.244 17.3002 226.379 17.1685C226.491 17.0368 226.558 16.8831 226.558 16.7294C226.558 16.2683 226.401 15.8072 226.132 15.3461C225.885 14.8851 225.48 14.424 224.986 14.0068C224.47 13.5896 223.841 13.2603 223.122 13.0188C222.403 12.7773 221.55 12.6455 220.606 12.6455C219.438 12.6455 218.405 12.8212 217.552 13.1944C216.676 13.5677 216.002 14.0946 215.485 14.7533C215.014 15.412 214.767 16.1805 214.767 17.0368C214.767 17.893 214.969 18.6176 215.373 19.2104C215.777 19.7813 216.361 20.2423 217.103 20.6156C217.844 20.9449 218.742 21.2304 219.775 21.4499C220.561 21.6036 221.19 21.7573 221.662 21.911C222.111 22.0427 222.426 22.1964 222.628 22.3721C222.785 22.5038 222.875 22.7014 222.875 22.921C222.875 23.2503 222.718 23.5138 222.381 23.7114C222.021 23.931 221.482 24.0407 220.741 24.0407C220.292 24.0407 219.91 23.9968 219.641 23.909C219.349 23.7992 219.124 23.6675 218.944 23.5138C218.787 23.3381 218.652 23.1625 218.518 22.9649C218.428 22.8332 218.315 22.7234 218.181 22.6575C218.046 22.5697 217.866 22.5258 217.619 22.5258H215.081C214.901 22.5258 214.744 22.5916 214.609 22.7234C214.497 22.8332 214.43 22.9868 214.43 23.1625C214.452 23.887 214.722 24.5896 215.193 25.2264C215.665 25.8631 216.384 26.39 217.305 26.7852C218.226 27.1585 219.371 27.3561 220.741 27.3561C221.954 27.3561 223.032 27.1805 223.975 26.8292C224.919 26.4779 225.682 25.9509 226.222 25.2703C226.783 24.5677 227.053 23.7334 227.053 22.8112C227.053 21.9769 226.873 21.2523 226.491 20.7034L226.446 20.6815Z" fill="white"/>
</svg>
