<svg width="40" height="40" viewBox="0 0 40 40" fill="none" xmlns="http://www.w3.org/2000/svg">
<path fill-rule="evenodd" clip-rule="evenodd" d="M0.860667 11.9053C2.21382 5.35909 6.37717 1.71303 12.8714 0.611515C17.6721 -0.202505 22.4745 -0.212783 27.2671 0.634421C33.9538 1.81639 37.9735 5.67506 39.2541 12.3203C40.2435 17.456 40.259 22.6464 39.2386 27.7772C37.8696 34.2782 33.5989 38.2911 27.1286 39.3885C22.3279 40.2025 17.5255 40.2128 12.733 39.3656C6.0462 38.1836 2.00868 34.1323 0.728102 27.4871C-0.311637 22.3175 -0.211555 17.0943 0.860667 11.9053Z" fill="#7F33EB"/>
<path opacity="0.5" fill-rule="evenodd" clip-rule="evenodd" d="M31 9.09998C25.6749 9.09998 22.6518 10.1376 19.7076 11.1488L19.7048 11.1498C16.8264 12.1383 14.0262 13.1 8.99998 13.1C8.50292 13.1 8.09998 13.5029 8.09998 14C8.09998 14.497 8.50292 14.9 8.99998 14.9C14.325 14.9 17.3481 13.8623 20.2923 12.8512L20.2952 12.8502C23.1735 11.8617 25.9737 10.9 31 10.9C31.497 10.9 31.9 10.497 31.9 9.99998C31.9 9.50292 31.497 9.09998 31 9.09998ZM8.99998 30.9C14.325 30.9 17.3481 29.8623 20.2923 28.8512L20.2952 28.8502C23.1735 27.8617 25.9737 26.9 31 26.9C31.497 26.9 31.9 26.497 31.9 26C31.9 25.5029 31.497 25.1 31 25.1C25.6749 25.1 22.6518 26.1376 19.7076 27.1488L19.7048 27.1498C16.8264 28.1383 14.0262 29.1 8.99998 29.1C8.50292 29.1 8.09998 29.5029 8.09998 30C8.09998 30.497 8.50292 30.9 8.99998 30.9Z" fill="white"/>
<path opacity="0.7" fill-rule="evenodd" clip-rule="evenodd" d="M31 9.09998C25.5162 9.09998 22.3958 11.5112 19.4802 13.7642L19.4497 13.7878C16.5505 16.0281 13.8499 18.1 8.99998 18.1C8.50292 18.1 8.09998 18.5029 8.09998 19C8.09998 19.497 8.50292 19.9 8.99998 19.9C14.4838 19.9 17.6042 17.4887 20.5197 15.2357L20.5503 15.2121C23.4495 12.9718 26.15 10.9 31 10.9C31.497 10.9 31.9 10.497 31.9 9.99998C31.9 9.50292 31.497 9.09998 31 9.09998ZM8.99998 30.9C14.4838 30.9 17.6042 28.4887 20.5197 26.2357L20.5503 26.2121C23.4495 23.9718 26.15 21.9 31 21.9C31.497 21.9 31.9 21.497 31.9 21C31.9 20.5029 31.497 20.1 31 20.1C25.5162 20.1 22.3958 22.5112 19.4802 24.7642L19.4497 24.7878C16.5505 27.0281 13.8499 29.1 8.99998 29.1C8.50292 29.1 8.09998 29.5029 8.09998 30C8.09998 30.497 8.50292 30.9 8.99998 30.9Z" fill="white"/>
<path fill-rule="evenodd" clip-rule="evenodd" d="M31 9.09998C25.5302 9.09998 22.6882 12.7284 20.0775 16.0614L20.0775 16.0615C19.9772 16.1895 19.8773 16.317 19.7776 16.4439C17.0258 19.9462 14.3547 23.1 8.99998 23.1C8.50292 23.1 8.09998 23.5029 8.09998 24C8.09998 24.497 8.50292 24.9 8.99998 24.9C15.2923 24.9 18.4448 21.0537 21.193 17.556L21.3586 17.3451C24.0898 13.8667 26.4192 10.9 31 10.9C31.497 10.9 31.9 10.497 31.9 9.99998C31.9 9.50292 31.497 9.09998 31 9.09998ZM8.99998 30.9C14.4697 30.9 17.3118 27.2716 19.9224 23.9385L19.9225 23.9385C20.0227 23.8105 20.1227 23.6829 20.2224 23.556C22.9742 20.0537 25.6453 16.9 31 16.9C31.497 16.9 31.9 16.497 31.9 16C31.9 15.5029 31.497 15.1 31 15.1C24.7076 15.1 21.5552 18.9462 18.807 22.4439L18.6414 22.6548C15.9102 26.1332 13.5808 29.1 8.99998 29.1C8.50292 29.1 8.09998 29.5029 8.09998 30C8.09998 30.497 8.50292 30.9 8.99998 30.9Z" fill="white"/>
</svg>
