<svg width="40" height="40" viewBox="0 0 40 40" fill="none" xmlns="http://www.w3.org/2000/svg">
<rect width="40" height="40" rx="20" fill="#141414" fill-opacity="0.4"/>
<path d="M27.2656 27.3125C26.9844 27.5938 26.4688 27.5938 26.1875 27.3125L20 21.0781L13.7656 27.3125C13.4844 27.5938 12.9688 27.5938 12.6875 27.3125C12.4062 27.0312 12.4062 26.5156 12.6875 26.2344L18.9219 20L12.6875 13.8125C12.4062 13.5312 12.4062 13.0156 12.6875 12.7344C12.9688 12.4531 13.4844 12.4531 13.7656 12.7344L20 18.9688L26.1875 12.7344C26.4688 12.4531 26.9844 12.4531 27.2656 12.7344C27.5469 13.0156 27.5469 13.5312 27.2656 13.8125L21.0312 20L27.2656 26.2344C27.5469 26.5156 27.5469 27.0312 27.2656 27.3125Z" fill="white"/>
</svg>
